<svg style="position:absolute;width:0;height:0;overflow:hidden" xmlns="http://www.w3.org/2000/svg">
<defs>
<symbol id="icon-menu" viewBox="0 0 32 32">
  <path d="M5.33398 23.027V21.6936H26.6673V23.027H5.33398ZM5.33398 16.667V15.3336H26.6673V16.667H5.33398ZM5.33398 10.307V8.97363H26.6673V10.307H5.33398Z" fill="#292929"/>
</symbol>

<symbol id="icon-github" viewBox="0 0 32 32">
<path d="M16 0C13.8989 0 11.8183 0.424127 9.87706 1.24817C7.93586 2.0722 6.17203 3.28001 4.68629 4.80264C1.68571 7.87772 0 12.0484 0 16.3972C0 23.6448 4.592 29.7938 10.944 31.9746C11.744 32.1058 12 31.5975 12 31.1547V28.3836C7.568 29.3674 6.624 26.1864 6.624 26.1864C5.888 24.2843 4.848 23.776 4.848 23.776C3.392 22.7594 4.96 22.7922 4.96 22.7922C6.56 22.9069 7.408 24.4811 7.408 24.4811C8.8 26.9734 11.152 26.2356 12.064 25.842C12.208 24.7762 12.624 24.0547 13.072 23.6448C9.52 23.2349 5.792 21.8247 5.792 15.5774C5.792 13.7573 6.4 12.2979 7.44 11.1337C7.28 10.7238 6.72 9.01848 7.6 6.80485C7.6 6.80485 8.944 6.36213 12 8.47737C13.264 8.11663 14.64 7.93626 16 7.93626C17.36 7.93626 18.736 8.11663 20 8.47737C23.056 6.36213 24.4 6.80485 24.4 6.80485C25.28 9.01848 24.72 10.7238 24.56 11.1337C25.6 12.2979 26.208 13.7573 26.208 15.5774C26.208 21.8411 22.464 23.2185 18.896 23.6284C19.472 24.1367 20 25.137 20 26.6619V31.1547C20 31.5975 20.256 32.1222 21.072 31.9746C27.424 29.7774 32 23.6448 32 16.3972C32 14.2439 31.5861 12.1117 30.7821 10.1223C29.978 8.13288 28.7994 6.32526 27.3137 4.80264C25.828 3.28001 24.0641 2.0722 22.1229 1.24817C20.1817 0.424127 18.1012 0 16 0Z" fill="#D00084"/>
</symbol>


<symbol id="icon-linkedin" viewBox="0 0 32 32">
<path d="M28.4444 0C29.3874 0 30.2918 0.374602 30.9586 1.0414C31.6254 1.70819 32 2.61256 32 3.55556V28.4444C32 29.3874 31.6254 30.2918 30.9586 30.9586C30.2918 31.6254 29.3874 32 28.4444 32H3.55556C2.61256 32 1.70819 31.6254 1.0414 30.9586C0.374602 30.2918 0 29.3874 0 28.4444V3.55556C0 2.61256 0.374602 1.70819 1.0414 1.0414C1.70819 0.374602 2.61256 0 3.55556 0H28.4444ZM27.5556 27.5556V18.1333C27.5556 16.5963 26.945 15.1221 25.8581 14.0353C24.7712 12.9484 23.2971 12.3378 21.76 12.3378C20.2489 12.3378 18.4889 13.2622 17.6356 14.6489V12.6756H12.6756V27.5556H17.6356V18.7911C17.6356 17.4222 18.7378 16.3022 20.1067 16.3022C20.7668 16.3022 21.3998 16.5644 21.8666 17.0312C22.3333 17.498 22.5956 18.131 22.5956 18.7911V27.5556H27.5556ZM6.89778 9.88445C7.68989 9.88445 8.44956 9.56978 9.00967 9.00967C9.56978 8.44956 9.88445 7.68989 9.88445 6.89778C9.88445 5.24444 8.55111 3.89333 6.89778 3.89333C6.10095 3.89333 5.33676 4.20987 4.77331 4.77331C4.20987 5.33676 3.89333 6.10095 3.89333 6.89778C3.89333 8.55111 5.24444 9.88445 6.89778 9.88445ZM9.36889 27.5556V12.6756H4.44444V27.5556H9.36889Z" fill="#D00084"/>
</symbol>

<symbol id="icon-mail" viewBox="0 0 32 26">
<path d="M28.8 22.75H25.6V8.53125L16 14.625L6.4 8.53125V22.75H3.2V3.25H5.12L16 10.1562L26.88 3.25H28.8M28.8 0H3.2C1.424 0 0 1.44625 0 3.25V22.75C0 23.612 0.337142 24.4386 0.937258 25.0481C1.53737 25.6576 2.35131 26 3.2 26H28.8C29.6487 26 30.4626 25.6576 31.0627 25.0481C31.6629 24.4386 32 23.612 32 22.75V3.25C32 2.38805 31.6629 1.5614 31.0627 0.951903C30.4626 0.34241 29.6487 0 28.8 0Z" fill="#D00084"/>
</symbol>

<symbol id="icon-tel" viewBox="0 0 32 32">
<path d="M6.43556 13.8489C8.99556 18.88 13.12 22.9867 18.1511 25.5644L22.0622 21.6533C22.5422 21.1733 23.2533 21.0133 23.8756 21.2267C25.8667 21.8844 28.0178 22.24 30.2222 22.24C31.2 22.24 32 23.04 32 24.0178V30.2222C32 31.2 31.2 32 30.2222 32C13.5289 32 0 18.4711 0 1.77778C0 0.8 0.8 0 1.77778 0H8C8.97778 0 9.77778 0.8 9.77778 1.77778C9.77778 4 10.1333 6.13333 10.7911 8.12444C10.9867 8.74667 10.8444 9.44 10.3467 9.93778L6.43556 13.8489Z" fill="#D00084"/>
</symbol>

<symbol id="icon-up" width="42" height="42" viewBox="0 0 42 42"  xmlns="http://www.w3.org/2000/svg">
<rect x="-0.5" y="0.5" width="41" height="41" rx="20.5" transform="matrix(1 0 0 -1 1 42)" stroke="#D00084"/>
<path d="M26 23.5L21 18.5L16 23.5" stroke="#D00084" stroke-width="2"/>
</symbol>

<symbol id="icon-down" width="42" height="42" viewBox="0 0 42 42" xmlns="http://www.w3.org/2000/svg">
<rect x="0.5" y="0.5" width="41" height="41" rx="20.5" stroke="#D00084"/>
<path d="M26 18.5L21 23.5L16 18.5" stroke="#D00084" stroke-width="2"/>
</symbol>

<symbol id="icon-swiper" width="28" height="28" viewBox="0 0 28 28"  xmlns="http://www.w3.org/2000/svg">
<path d="M4.66699 14H23.3337" stroke="#D00084" stroke-width="2" stroke-linecap="round" stroke-linejoin="round"/>
<path d="M16.333 7L23.333 14L16.333 21" stroke="#D00084" stroke-width="2" stroke-linecap="round" stroke-linejoin="round"/>
</symbol>

<symbol id="icon-project-button" width="24" height="24" viewBox="0 0 24 24" xmlns="http://www.w3.org/2000/svg">
<path d="M4.75 19.25L19.25 4.75M19.25 4.75H5.75M19.25 4.75V18.25" stroke="#D00084" stroke-width="2" stroke-linecap="round" stroke-linejoin="round"/>
</symbol>

<symbol id="icon-modal-button" width="24" height="24" viewBox="0 0 24 24" xmlns="http://www.w3.org/2000/svg">
<path d="M18 6L6 18" stroke="#D00084" stroke-width="2" stroke-linecap="round" stroke-linejoin="round"/>
<path d="M6 6L18 18" stroke="#D00084" stroke-width="2" stroke-linecap="round" stroke-linejoin="round"/>
</symbol>

<symbol id="icon-menu-button" width="32" height="32" viewBox="0 0 32 32" xmlns="http://www.w3.org/2000/svg">
<path d="M24 8L8 24" stroke="#292929" stroke-width="2" stroke-linecap="round" stroke-linejoin="round"/>
<path d="M8 8L24 24" stroke="#292929" stroke-width="2" stroke-linecap="round" stroke-linejoin="round"/>
</symbol>

</defs>
</svg>
